<svg width="688" height="687" viewBox="0 0 688 687" fill="none" xmlns="http://www.w3.org/2000/svg">
<rect x="193" y="248" width="82" height="28" fill="white"/>
<rect x="247" y="357" width="82" height="28" fill="white"/>
<rect x="358" y="357" width="82" height="28" fill="white"/>
<rect x="603" y="332" width="82" height="28" fill="white"/>
<rect x="548" y="304" width="82" height="28" fill="white"/>
<rect x="548" y="220" width="82" height="28" fill="white"/>
<rect x="603" y="494" width="82" height="28" fill="white"/>
<rect x="219" y="577" width="82" height="28" fill="white"/>
<path d="M220 617V590H301V617H220Z" fill="white"/>
<rect x="301" y="549" width="82" height="28" fill="white"/>
<rect x="546" y="668" width="82" height="28" transform="rotate(-90 546 668)" fill="white"/>
<rect x="546" y="549" width="82" height="28" transform="rotate(-90 546 549)" fill="white"/>
<rect x="548" y="453" width="82" height="28" transform="rotate(-90 548 453)" fill="white"/>
<rect x="548" y="358" width="82" height="28" transform="rotate(-90 548 358)" fill="white"/>
<rect x="603" y="521" width="82" height="28" transform="rotate(-90 603 521)" fill="white"/>
<rect x="657" y="494" width="82" height="28" transform="rotate(-90 657 494)" fill="white"/>
<rect x="629" y="581" width="82" height="28" transform="rotate(-90 629 581)" fill="white"/>
<rect x="629" y="631" width="82" height="28" transform="rotate(-90 629 631)" fill="white"/>
<rect x="603" y="659" width="82" height="28" transform="rotate(-90 603 659)" fill="white"/>
<rect x="493" y="659" width="82" height="28" transform="rotate(-90 493 659)" fill="white"/>
<rect x="439" y="549" width="82" height="28" transform="rotate(-90 439 549)" fill="white"/>
<rect x="411" y="549" width="27" height="28" transform="rotate(-90 411 549)" fill="white"/>
<rect x="384" y="522" width="27" height="28" transform="rotate(-90 384 522)" fill="white"/>
<rect x="357" y="495" width="27" height="28" transform="rotate(-90 357 495)" fill="white"/>
<path d="M329 495V468H357V495H329Z" fill="white"/>
<rect x="357" y="468" width="27" height="28" transform="rotate(-90 357 468)" fill="white"/>
<rect x="301" y="468" width="27" height="28" transform="rotate(-90 301 468)" fill="white"/>
<rect x="329" y="441" width="27" height="28" transform="rotate(-90 329 441)" fill="white"/>
<rect x="329" y="414" width="29" height="28" transform="rotate(-90 329 414)" fill="white"/>
<rect x="273" y="441" width="27" height="28" transform="rotate(-90 273 441)" fill="white"/>
<rect x="273" y="495" width="27" height="28" transform="rotate(-90 273 495)" fill="white"/>
<rect x="165" y="467" width="27" height="28" transform="rotate(-90 165 467)" fill="white"/>
<rect x="137" y="440" width="27" height="28" transform="rotate(-90 137 440)" fill="white"/>
<rect x="109" y="467" width="27" height="28" transform="rotate(-90 109 467)" fill="white"/>
<rect x="447" y="439" width="27" height="28" transform="rotate(-90 447 439)" fill="white"/>
<rect x="439" y="452" width="27" height="28" transform="rotate(-90 439 452)" fill="white"/>
<rect x="465" y="451" width="27" height="28" transform="rotate(-90 465 451)" fill="white"/>
<rect x="506" y="466" width="27" height="28" transform="rotate(-90 506 466)" fill="white"/>
<rect x="521" y="446" width="27" height="28" transform="rotate(-90 521 446)" fill="white"/>
<rect x="615" y="412" width="27" height="28" transform="rotate(-90 615 412)" fill="white"/>
<rect x="603" y="353" width="27" height="27" transform="rotate(-90 603 353)" fill="white"/>
<rect x="28" y="332" width="29" height="28" transform="rotate(-90 28 332)" fill="white"/>
<rect x="370" y="357" width="27" height="28" transform="rotate(-90 370 357)" fill="white"/>
<path d="M658 538V511H685V538H658Z" fill="white"/>
<path d="M658 508V481H685V508H658Z" fill="white"/>
<path d="M546 597V570H573V597H546Z" fill="white"/>
<path d="M546 567V540H574V567H546Z" fill="white"/>
<path d="M493 594V567H521V594H493Z" fill="white"/>
<path d="M493 594V567H521V594H493Z" fill="white"/>
<rect x="164" y="357" width="27" height="28" transform="rotate(-90 164 357)" fill="white"/>
<rect x="220" y="357" width="27" height="28" transform="rotate(-90 220 357)" fill="white"/>
<rect x="247" y="357" width="27" height="28" transform="rotate(-90 247 357)" fill="white"/>
<rect x="220" y="331" width="27" height="28" transform="rotate(-90 220 331)" fill="white"/>
<rect x="411" y="331" width="27" height="28" transform="rotate(-90 411 331)" fill="white"/>
<rect x="468" y="358" width="27" height="28" transform="rotate(-90 468 358)" fill="white"/>
<rect x="521" y="276" width="27" height="27" transform="rotate(-90 521 276)" fill="white"/>
<rect x="630" y="276" width="27" height="27" transform="rotate(-90 630 276)" fill="white"/>
<rect x="657" y="248" width="27" height="27" transform="rotate(-90 657 248)" fill="white"/>
<rect x="643" y="549" width="27" height="27" transform="rotate(-90 643 549)" fill="white"/>
<rect x="466" y="640" width="27" height="27" transform="rotate(-90 466 640)" fill="white"/>
<rect x="479" y="631" width="27" height="27" transform="rotate(-90 479 631)" fill="white"/>
<rect x="479" y="659" width="27" height="27" transform="rotate(-90 479 659)" fill="white"/>
<rect x="479" y="659" width="27" height="27" transform="rotate(-90 479 659)" fill="white"/>
<rect x="439" y="558" width="28" height="28" transform="rotate(-90 439 558)" fill="white"/>
<rect x="430" y="549" width="27" height="28" transform="rotate(-90 430 549)" fill="white"/>
<rect x="348" y="591" width="27" height="28" transform="rotate(-90 348 591)" fill="white"/>
<rect x="348" y="610" width="27" height="28" transform="rotate(-90 348 610)" fill="white"/>
<rect x="343" y="495" width="27" height="28" transform="rotate(-90 343 495)" fill="white"/>
<rect x="357" y="482" width="27" height="28" transform="rotate(-90 357 482)" fill="white"/>
<rect x="329" y="426" width="27" height="28" transform="rotate(-90 329 426)" fill="white"/>
<rect x="658" y="386" width="26" height="27" transform="rotate(-90 658 386)" fill="white"/>
<rect x="631" y="412" width="27" height="27" transform="rotate(-90 631 412)" fill="white"/>
<rect x="604" y="412" width="27" height="27" transform="rotate(-90 604 412)" fill="white"/>
<rect x="521" y="439" width="27" height="27" transform="rotate(-90 521 439)" fill="white"/>
<rect x="466" y="439" width="27" height="27" transform="rotate(-90 466 439)" fill="white"/>
<rect x="439" y="439" width="27" height="27" transform="rotate(-90 439 439)" fill="white"/>
<rect x="493" y="521" width="27" height="27" transform="rotate(-90 493 521)" fill="white"/>
<rect x="658" y="549" width="27" height="27" transform="rotate(-90 658 549)" fill="white"/>
<rect x="466" y="631" width="27" height="27" transform="rotate(-90 466 631)" fill="white"/>
<rect x="466" y="659" width="28" height="27" transform="rotate(-90 466 659)" fill="white"/>
<rect x="384" y="685" width="27" height="27" transform="rotate(-90 384 685)" fill="white"/>
<rect x="193" y="289" width="27" height="27" transform="rotate(-90 193 289)" fill="white"/>
<rect x="221" y="263" width="27" height="27" transform="rotate(-90 221 263)" fill="white"/>
<rect x="468" y="372" width="27" height="27" transform="rotate(-90 468 372)" fill="white"/>
<rect x="549" y="372" width="27" height="27" transform="rotate(-90 549 372)" fill="white"/>
<rect x="658" y="373" width="27" height="27" transform="rotate(-90 658 373)" fill="white"/>
<rect x="548" y="594" width="27" height="56" transform="rotate(-90 548 594)" fill="white"/>
<rect x="427" y="139" width="27" height="27" transform="rotate(-90 427 139)" fill="white"/>
<rect x="329" y="685" width="27" height="27" transform="rotate(-90 329 685)" fill="white"/>
<rect x="412" y="139" width="27" height="27" transform="rotate(-90 412 139)" fill="white"/>
<rect x="329" y="194" width="27" height="27" transform="rotate(-90 329 194)" fill="white"/>
<rect x="166" y="249" width="27" height="27" transform="rotate(-90 166 249)" fill="white"/>
<rect x="302" y="221" width="27" height="27" transform="rotate(-90 302 221)" fill="white"/>
<rect x="275" y="194" width="27" height="27" transform="rotate(-90 275 194)" fill="white"/>
<rect x="248" y="221" width="27" height="27" transform="rotate(-90 248 221)" fill="white"/>
<rect x="221" y="194" width="27" height="27" transform="rotate(-90 221 194)" fill="white"/>
<rect x="221" y="248" width="27" height="27" transform="rotate(-90 221 248)" fill="white"/>
<rect y="303" width="27" height="28" transform="rotate(-90 0 303)" fill="white"/>
<rect x="28" y="344" width="27" height="28" transform="rotate(-90 28 344)" fill="white"/>
<rect x="137" y="426" width="27" height="28" transform="rotate(-90 137 426)" fill="white"/>
<rect x="247" y="367" width="27" height="28" transform="rotate(-90 247 367)" fill="white"/>
<rect x="329" y="184" width="27" height="27" transform="rotate(-90 329 184)" fill="white"/>
<rect x="234" y="112" width="27" height="27" transform="rotate(-90 234 112)" fill="white"/>
<rect x="234" y="112" width="27" height="27" transform="rotate(-90 234 112)" fill="white"/>
<rect x="412" y="126" width="27" height="27" transform="rotate(-90 412 126)" fill="white"/>
<rect x="440" y="233" width="27" height="27" transform="rotate(-90 440 233)" fill="white"/>
<rect x="233" y="113" width="27" height="27" transform="rotate(-90 233 113)" fill="white"/>
<rect x="493" y="358" width="82" height="28" transform="rotate(-90 493 358)" fill="white"/>
<rect x="493" y="412" width="82" height="28" transform="rotate(-90 493 412)" fill="white"/>
<rect x="439" y="304" width="82" height="28" transform="rotate(-90 439 304)" fill="white"/>
<rect x="439" y="220" width="82" height="28" transform="rotate(-90 439 220)" fill="white"/>
<rect x="220" y="139" width="82" height="28" transform="rotate(-90 220 139)" fill="white"/>
<rect x="439" y="84" width="82" height="28" transform="rotate(-90 439 84)" fill="white"/>
<rect x="385" y="85" width="82" height="28" transform="rotate(-90 385 85)" fill="white"/>
<rect x="358" y="112" width="82" height="28" transform="rotate(-90 358 112)" fill="white"/>
<rect x="302" y="138" width="82" height="28" transform="rotate(-90 302 138)" fill="white"/>
<rect x="248" y="167" width="82" height="27" transform="rotate(-90 248 167)" fill="white"/>
<rect x="384" y="236" width="82" height="28" transform="rotate(-90 384 236)" fill="white"/>
<rect x="439" y="194" width="82" height="28" transform="rotate(-90 439 194)" fill="white"/>
<rect x="356" y="330" width="82" height="28" transform="rotate(-90 356 330)" fill="white"/>
<rect x="358" y="385" width="81" height="27" transform="rotate(-90 358 385)" fill="white"/>
<rect x="385" y="386" width="82" height="28" transform="rotate(-90 385 386)" fill="white"/>
<path d="M385 412V330H413V412H385Z" fill="white"/>
<path d="M302 385V304H329V385H302Z" fill="white"/>
<path d="M192 441V357H220V441H192Z" fill="white"/>
<path d="M110 360V279H138V360H110Z" fill="white"/>
<path d="M82 415V334H110V415H82Z" fill="white"/>
<path d="M55 466L55 385H83V466H55Z" fill="white"/>
<path d="M82 440V357H109V440H82Z" fill="white"/>
<path d="M219 466V385H247V466H219Z" fill="white"/>
<path d="M219 494V413H247V494H219Z" fill="white"/>
<path d="M219 658V577H247V658H219Z" fill="white"/>
<path d="M219 687V606H247V687H219Z" fill="white"/>
<path d="M411 658V577H439V658H411Z" fill="white"/>
<path d="M357 630V549H385V630H357Z" fill="white"/>
<path d="M329 630V549H357V630H329Z" fill="white"/>
<path d="M329 597V516H357V597H329Z" fill="white"/>
<rect y="220" width="110" height="28" fill="white"/>
<rect x="28" y="248" width="110" height="28" fill="white"/>
<rect x="56" y="276" width="109" height="27" fill="white"/>
<rect x="56" y="263" width="82" height="27" fill="white"/>
<rect x="28" y="240" width="82" height="27" fill="white"/>
<rect x="110" y="276" width="110" height="28" fill="white"/>
<rect x="28" y="332" width="110" height="28" fill="white"/>
<rect x="28" y="385" width="110" height="28" fill="white"/>
<rect x="137" y="385" width="110" height="28" fill="white"/>
<rect x="220" y="112" width="110" height="28" fill="white"/>
<rect x="303" y="56" width="110" height="28" fill="white"/>
<rect x="358" y="84" width="81" height="28" fill="white"/>
<rect x="329" y="139" width="83" height="28" fill="white"/>
<rect x="384" y="220" width="110" height="28" fill="white"/>
<rect x="303" y="304" width="110" height="28" fill="white"/>
<rect x="247" y="494" width="110" height="28" fill="white"/>
<rect x="248" y="605" width="110" height="28" fill="white"/>
<rect x="275" y="605" width="110" height="28" fill="white"/>
<rect x="220" y="605" width="110" height="28" fill="white"/>
<rect x="413" y="439" width="110" height="28" fill="white"/>
<rect x="468" y="358" width="108" height="28" fill="white"/>
<rect x="523" y="439" width="110" height="28" fill="white"/>
<rect x="576" y="439" width="107" height="28" fill="white"/>
<rect x="468" y="549" width="110" height="28" fill="white"/>
<rect x="439" y="549" width="110" height="28" fill="white"/>
<rect x="494" y="549" width="110" height="28" fill="white"/>
<rect x="521" y="659" width="110" height="28" fill="white"/>
<rect x="578" y="659" width="110" height="28" fill="white"/>
<rect x="546" y="577" width="110" height="28" fill="white"/>
<rect x="578" y="577" width="110" height="28" fill="white"/>
<rect y="1" width="30" height="191" fill="white"/>
<rect width="193" height="28" fill="white"/>
<rect x="162" width="31" height="192" fill="white"/>
<rect y="167" width="193" height="25" fill="white"/>
<rect x="494" y="3" width="30" height="191" fill="white"/>
<rect x="494" y="2" width="193" height="28" fill="white"/>
<rect x="656" y="2" width="31" height="192" fill="white"/>
<rect x="494" y="169" width="193" height="25" fill="white"/>
<rect y="496" width="30" height="191" fill="white"/>
<rect y="495" width="193" height="28" fill="white"/>
<rect x="162" y="495" width="31" height="192" fill="white"/>
<rect y="662" width="193" height="25" fill="white"/>
<rect x="54" y="56" width="84" height="84" fill="white"/>
<rect x="54" y="549" width="84" height="84" fill="white"/>
<rect x="548" y="54" width="84" height="84" fill="white"/>
<rect x="218" width="57" height="28" fill="white"/>
</svg>
